<svg width="448" height="300" viewBox="0 0 448 300" fill="none" xmlns="http://www.w3.org/2000/svg">
<path d="M341.424 1.23852C343.351 2.56665 345.028 4.1643 346.715 5.77953C347.765 6.78283 348.826 7.7754 349.897 8.75708C355.594 13.9861 361.036 19.4705 366.49 24.9495C367.772 26.2356 369.055 27.5212 370.338 28.8064C372.953 31.4265 375.566 34.0481 378.179 36.6711C378.813 37.3088 378.813 37.3088 379.46 37.9602C380.698 39.1897 381.98 40.3547 383.275 41.5237C386.93 44.8538 390.397 48.3723 393.869 51.8909C396.111 54.1541 398.372 56.345 400.792 58.4172C401.853 59.3377 402.836 60.3215 403.813 61.3293C405.452 62.9895 407.144 64.5344 408.916 66.05C410.462 67.4314 411.899 68.9163 413.345 70.4026L415.532 72.3152L416.265 73.0476L416.753 73.5359C416.753 73.5359 418.872 75.2903 419.958 76.3796L421.288 77.7039C421.763 78.1824 422.238 78.6612 422.713 79.1404C423.206 79.6335 423.698 80.1262 424.191 80.6184C425.224 81.6523 426.255 82.6874 427.286 83.7239C428.596 85.0429 429.91 86.3596 431.225 87.6741C432.244 88.693 433.261 89.7125 434.278 90.7327C434.761 91.2177 435.245 91.7024 435.729 92.1868C439.079 95.5418 442.382 98.9314 445.256 102.711L445.969 103.634C446.581 104.61 446.861 105.358 447.026 106.495C444.918 113.12 434.513 118.573 429.119 122.686C426.062 125.019 423.035 127.388 420.017 129.772C417.78 131.538 415.539 133.298 413.297 135.056C412.645 135.567 411.994 136.079 411.344 136.592C387.472 155.392 387.472 155.392 381.606 155.089C377.573 154.052 374.338 148.911 371.618 145.91C370.395 144.564 369.16 143.231 367.925 141.896L366.462 140.311L363.513 137.117L362.763 136.305C361.378 134.806 361.378 134.806 359.993 133.309C359.367 132.625 358.745 131.938 358.128 131.246C353.809 126.449 349.241 121.9 344.678 117.338C343.49 116.149 342.304 114.958 341.121 113.765C339.981 112.619 338.839 111.477 337.697 110.335L336.412 109.039L335.22 107.852L334.175 106.805C333.255 105.903 333.255 105.903 331.792 105.519C330.008 106.412 328.527 107.602 327.001 108.876L325.581 110.052C325.326 110.265 325.071 110.477 324.807 110.696C323.92 111.426 323.028 112.151 322.133 112.872C318.084 116.14 314.091 119.476 310.153 122.877C306.913 125.667 303.646 128.426 300.329 131.123C295.806 134.808 291.4 138.623 287.087 142.552C285.366 144.07 283.57 145.49 281.764 146.906C281.764 146.906 279.239 149.515 278.081 150.929L278.873 151.719C281.353 154.188 283.831 156.658 286.308 159.131C287.58 160.401 288.854 161.67 290.128 162.939C291.361 164.167 292.593 165.395 293.823 166.625C294.516 167.316 295.209 168.006 295.902 168.695C297.728 170.521 299.534 172.34 301.212 174.303C303.659 177.152 306.359 179.766 309.016 182.417L310.761 184.163C311.973 185.376 313.186 186.588 314.399 187.799C315.952 189.35 317.503 190.902 319.054 192.455C320.252 193.655 321.45 194.853 322.649 196.051C323.221 196.623 323.794 197.195 324.365 197.768C325.164 198.567 325.963 199.365 326.763 200.162L328.138 201.536C329.295 202.684 330.327 203.907 330.327 203.907L330.815 204.395L331.548 205.128L331.792 205.372C332.771 206.842 334.839 205.279 335.978 204.407L336.959 203.664L337.987 202.87L339.055 202.056C341.131 200.472 343.193 198.871 345.248 197.261C348.535 194.72 351.878 192.255 355.205 189.768C356.139 189.07 357.073 188.371 358.006 187.672L358.961 186.958C361.291 185.21 363.606 183.445 365.918 181.675C369.996 178.555 374.09 175.478 378.293 172.53C379.239 171.866 380.183 171.2 381.125 170.533C383.921 168.556 386.719 166.583 389.52 164.614C393.081 162.111 396.625 159.584 400.151 157.032C406.533 152.41 412.978 147.876 419.484 143.43C420.342 142.844 421.2 142.258 422.057 141.672C427.233 138.13 432.41 134.589 437.658 131.154L438.664 130.487C440.142 129.529 441.4 128.832 443.12 128.468C443.843 131.892 443.453 135.226 443.181 138.692C442.407 148.824 442.059 158.943 442.08 169.106C442.082 170.672 442.08 172.237 442.077 173.803C442.075 179.122 442.152 184.433 442.352 189.749L442.405 191.25C442.652 197.162 443.356 202.726 446.05 208.058C446.782 209.858 446.782 209.858 447.026 211.476C445.71 214.569 442.789 216.316 440.19 218.312C435.147 222.357 430.201 226.532 425.42 230.885C423.49 232.638 421.484 234.263 419.436 235.877C418.187 236.891 416.996 237.949 415.807 239.033C414.181 240.517 412.512 241.952 410.802 243.336C407.341 246.14 403.996 249.075 400.64 252.003C396.905 255.26 393.167 258.499 389.316 261.618C387.699 262.947 386.112 264.308 384.526 265.675C382.092 267.77 379.626 269.829 377.13 271.851C375.485 273.207 373.871 274.597 372.258 275.99C370.116 277.836 367.958 279.637 365.706 281.35C364.74 282.098 363.782 282.859 362.834 283.631C342.136 300.447 342.136 300.447 330.327 299.366C324.452 298.041 319.764 294.847 315.19 291.066L314.443 290.452C310.758 287.411 307.275 284.231 303.945 280.804C302.607 279.431 301.252 278.125 299.79 276.885C296.289 273.863 293.112 270.477 289.862 267.192C288.967 266.289 288.071 265.386 287.175 264.485C286.909 264.214 286.642 263.943 286.367 263.665C284.989 262.274 283.557 260.937 282.074 259.658C279.741 257.639 277.581 255.461 275.411 253.27L274.109 251.962C272.516 250.362 270.925 248.761 269.335 247.159C267.771 245.583 266.205 244.009 264.638 242.436L263.409 241.195C261.336 239.113 259.225 237.119 256.996 235.204C255.669 234.04 254.431 232.799 253.194 231.541L252.417 230.76C251.343 229.675 250.269 228.59 249.197 227.504C246.536 224.813 243.883 222.154 241.001 219.698C238.432 217.406 236.06 214.888 233.643 212.438C231.102 209.865 228.557 207.34 225.805 204.99C223.541 202.986 221.465 200.775 219.346 198.62L218.236 197.499L217.258 196.503C216.286 195.57 215.298 194.689 214.277 193.811C211.892 191.737 209.655 189.525 207.415 187.296L206.078 185.967C205.149 185.043 204.221 184.118 203.294 183.193C202.118 182.019 200.937 180.85 199.755 179.682C198.613 178.552 197.475 177.415 196.337 176.28L195.069 175.029C185.283 165.207 178.256 157.314 179.936 142.872C181.095 132.916 187.55 122.271 194.371 115.496C195.062 114.802 195.747 114.101 196.424 113.392C198.97 110.774 201.618 108.402 204.473 106.127C205.862 104.992 207.182 103.805 208.501 102.589C210.646 100.617 212.855 98.759 215.121 96.928C216.74 95.6038 218.329 94.2488 219.914 92.8845L221.658 91.3855L222.53 90.6355C225.701 87.9128 228.874 85.1936 232.152 82.5999C234.454 80.7766 236.676 78.8694 238.899 76.9519C241.062 75.0891 243.259 73.2737 245.475 71.4744C246.996 70.2219 248.506 68.9561 250.005 67.677C252.825 65.2815 255.679 62.9319 258.55 60.5969L261.235 58.3997C262.543 57.3293 263.852 56.2594 265.161 55.1897C267.926 52.9287 270.686 50.6621 273.442 48.3899C276.611 45.779 279.784 43.1749 282.964 40.5774L285.649 38.3801L291.02 33.9856L292.367 32.8831C293.248 32.1624 294.131 31.4426 295.015 30.7239C297.721 28.5165 300.404 26.2811 303.063 24.0178C305.163 22.2361 307.292 20.4914 309.428 18.7537C310.656 17.741 311.874 16.7172 313.083 15.6824C316.12 13.0896 319.22 10.593 322.373 8.14331C323.795 7.03735 325.184 5.89575 326.573 4.74975C330.932 1.25268 335.923 -1.78638 341.424 1.23852Z" fill="url(#paint0_linear_4391_86)"/>
<path d="M153.503 4.63815C158.288 7.39205 162.229 12.2563 166.077 16.1347C167.267 17.333 168.459 18.5273 169.654 19.7216C170.422 20.4915 171.19 21.262 171.957 22.0332L173.022 23.1001C174.977 25.0692 176.862 27.1074 178.671 29.2109C179.516 30.1826 180.41 31.0879 181.335 31.9819C182.866 33.4921 184.288 35.0551 185.686 36.6875C186.476 37.5795 187.284 38.4558 188.108 39.3159C203.169 55.0883 203.169 55.0883 203.44 62.2094C203.025 65.4292 201.167 67.392 198.914 69.5796L197.689 70.8383C195.096 73.4858 192.45 75.9038 189.546 78.2163C188.059 79.437 186.649 80.7192 185.242 82.0307C183.026 84.0903 180.74 86.0293 178.385 87.9262C176.715 89.2963 175.088 90.7104 173.462 92.1318C170.48 94.7343 167.445 97.2626 164.382 99.7685C161.846 101.848 159.349 103.967 156.866 106.109C155.196 107.548 153.505 108.962 151.794 110.351C149.158 112.493 146.582 114.703 144.006 116.918C142.345 118.347 140.679 119.769 139.007 121.185L138.214 121.857C136.551 123.258 134.872 124.641 133.179 126.006C130.883 127.873 128.705 129.845 126.528 131.849C124.777 133.421 122.953 134.892 121.123 136.369C119.422 137.772 117.802 139.254 116.175 140.739C114.433 142.286 112.621 143.742 110.8 145.194C109.506 146.249 109.506 146.249 108.24 147.59C105.587 150.166 106.985 151.213 110.107 154.144C111.085 155.068 112.041 156.014 112.976 156.982C113.967 157.973 114.965 158.94 115.845 160.034C117.08 161.56 118.419 162.922 119.812 164.306L121.238 165.739C122.629 167.139 124.021 168.538 125.414 169.935C126.011 170.534 126.607 171.133 127.202 171.733C130.022 174.572 132.821 177.39 135.87 179.984C138.738 182.552 141.388 185.372 144.093 188.109C148.29 192.353 148.29 192.353 152.722 196.348C153.75 197.233 154.697 198.184 155.64 199.157C156.883 200.464 158.386 201.659 158.386 201.659L158.63 201.903L159.119 202.392L159.363 202.636C159.363 202.636 161.059 204.005 161.926 204.925C163.422 206.465 164.98 207.884 166.605 209.286C167.782 210.313 168.949 211.352 170.105 212.402C173.44 215.408 176.827 218.343 180.259 221.238C182.566 223.185 184.855 225.152 187.143 227.122C188.917 228.642 190.715 230.134 192.536 231.597C199.218 237.058 203.783 243.493 205.261 252.197C205.419 254.203 205.442 256.197 205.444 258.209L205.48 259.783C205.497 264.297 204.638 268.602 201.629 272.124L200.808 273.111L199.89 274.169L198.757 275.6C197.434 277.187 195.94 278.437 194.305 279.693L193.396 280.396C190.318 282.738 187.107 284.898 183.777 286.865L182.618 287.553C175.789 291.56 168.828 294.629 161.316 297.119L160.048 297.54C154.545 299.329 149.029 300.904 143.433 298.583C138.575 296.074 134.52 292.532 130.554 288.818L128.729 287.128C124.463 283.155 120.284 279.088 116.197 274.931C114.187 272.897 112.135 270.964 109.967 269.101C108.388 267.709 106.942 266.188 105.489 264.667C104.109 263.255 102.683 262.022 101.106 260.832L88.4131 248.35C87.041 246.755 85.5615 245.356 83.9961 243.952C80.5137 240.793 77.1929 237.48 73.8716 234.153L71.9473 232.23C70.6146 230.898 69.2827 229.565 67.9517 228.231C66.2524 226.53 64.5516 224.83 62.8491 223.131C61.5288 221.813 60.2093 220.493 58.8906 219.173L57.0088 217.292C56.1322 216.416 55.2565 215.54 54.3818 214.662L53.6113 213.894C49.3527 209.611 45.1953 205.228 40.9546 200.927L40.2222 200.194L39.7339 199.706C36.2015 196.717 33.2658 192.951 29.9683 189.697C29.1538 188.884 28.34 188.07 27.5269 187.255L26.1992 185.928C22.1558 181.884 22.1558 181.884 20.8701 180.581C19.9781 179.698 19.0423 178.86 18.0664 178.07C16.4595 176.712 15.1221 175.217 13.7651 173.614C12.8638 172.59 11.9111 171.657 10.9253 170.715C4.32275 164.138 0.111816 155.059 0 145.751C0.0283203 142.165 0.491699 138.911 1.64795 135.498L2.02539 134.279C5.68555 123.786 15.9019 115.436 24.3149 108.695C25.5854 107.656 26.8022 106.575 28.0151 105.468C30.0884 103.581 32.229 101.8 34.4067 100.036C35.9321 98.791 37.439 97.5258 38.9404 96.2519L39.7427 95.5712L42.1753 93.5053C45.1582 90.9702 48.1396 88.4365 51.1782 85.9677C53.5527 84.0351 55.8755 82.0478 58.1948 80.0493C60.3384 78.206 62.5176 76.4116 64.7124 74.6303C66.3335 73.2939 67.9272 71.9277 69.519 70.5561C71.9556 68.4565 74.4224 66.4033 76.9194 64.3764C78.5405 63.04 80.1343 61.6738 81.7261 60.3022C84.1626 58.2026 86.6294 56.1494 89.1265 54.1225C90.7476 52.7861 92.3413 51.4199 93.9331 50.0483C96.3819 47.9407 98.861 45.8685 101.37 43.8325C103.964 41.706 106.514 39.5258 109.07 37.353C112.053 34.8178 115.034 32.2841 118.073 29.8154C120.146 28.1279 122.182 26.4023 124.207 24.6577C126.613 22.5829 129.05 20.5431 131.516 18.539C132.659 17.608 133.798 16.6722 134.934 15.7314C138.321 12.9272 141.717 10.1367 145.172 7.41549L146.038 6.73189C148.59 4.73336 150.265 4.05221 153.503 4.63815Z" fill="url(#paint1_linear_4391_86)"/>
<path fill-rule="evenodd" clip-rule="evenodd" d="M136.169 193.604C135.574 191.494 134.836 190.065 133.3 188.477C129.066 186.933 129.066 186.933 120.544 194.611L120.351 194.787C119.304 195.741 118.26 196.693 117.195 197.626C115.213 199.348 113.257 201.1 111.328 202.881C109.988 204.116 108.646 205.35 107.275 206.551C105.425 208.146 103.625 209.762 101.925 211.518L101.074 212.403C99.8073 213.634 98.6106 214.816 97.656 216.309C97.2863 218.041 97.3366 219.577 98.1442 221.192C99.8347 222.817 101.434 223.545 103.627 224.221L104.816 224.57C106.133 224.969 107.449 225.366 108.769 225.755C109.705 226.03 110.641 226.307 111.576 226.585C117.733 228.419 123.909 230.179 130.125 231.8L131.225 232.086C132.274 232.363 133.324 232.636 134.375 232.905L135.338 233.149C137.652 233.738 139.698 234.004 142.09 233.887C143.659 233.102 144.432 232.372 145.508 230.957C145.73 229.833 145.886 229.042 145.92 228.247C146.001 226.368 145.4 224.46 143.379 218.045C143.127 217.246 142.878 216.447 142.632 215.646L142.558 215.405C142.091 213.876 141.624 212.347 141.152 210.82C140.339 208.194 139.558 205.559 138.81 202.914C138.58 202.095 138.349 201.276 138.115 200.458C137.812 199.394 137.509 198.33 137.207 197.266L136.667 195.328L136.169 193.604ZM102.238 178.425C101.734 173.934 99.5759 170.547 96.1569 167.58C91.8435 164.457 87.1457 163.634 81.9397 164.246C77.6145 165.207 73.9079 167.664 71.4279 171.332L70.8005 172.364C69.5754 174.337 68.927 176.066 68.6604 178.385C68.5051 183.17 69.3186 186.83 72.3874 190.552C76.1306 194.477 79.988 196.744 85.5407 196.93C90.5827 196.517 94.7033 194.848 98.194 191.103C101.371 187.121 102.476 183.513 102.238 178.425Z" fill="#FEFEFE"/>
<path d="M60.9812 201.429C60.9812 201.429 63.0357 201.879 64.2087 203.125C65.9267 204.949 66.4811 207.164 67.0584 209.471C67.3714 210.722 67.6911 212 68.2067 213.257C68.8998 214.947 69.5078 216.469 70.0829 217.908C71.157 220.597 72.1162 222.998 73.2995 225.664L73.8352 226.883L74.3098 227.948C74.7443 229.103 74.9836 230.232 75.195 231.446C75.0038 231.37 74.7068 231.689 74.4627 231.689C72.9978 230.713 71.7748 229.231 70.4886 228C70.339 227.857 70.1889 227.713 70.0378 227.57L69.0891 226.678C65.9206 223.679 62.844 220.588 59.7824 217.48C57.9904 215.668 54.1989 212.403 54.1989 212.403C54.1989 212.403 52.6098 210.174 52.5207 208.527C52.3775 205.88 53.7881 204.16 55.9997 202.698C57.6746 201.591 58.9808 201.258 60.9812 201.429Z" fill="#FEFEFE"/>
<path d="M60.9812 201.429C60.9812 201.429 63.0357 201.879 64.2087 203.125C65.9267 204.949 66.4811 207.164 67.0584 209.471C67.3714 210.722 67.6911 212 68.2067 213.257C68.8998 214.947 69.5078 216.469 70.0829 217.908C71.157 220.597 72.1162 222.998 73.2995 225.664L73.8352 226.883L74.3098 227.948C74.7443 229.103 74.9836 230.232 75.195 231.446C75.0038 231.37 74.7068 231.689 74.4627 231.689C72.9978 230.713 71.7748 229.231 70.4886 228C70.339 227.857 70.1889 227.713 70.0378 227.57L69.0891 226.678C65.9206 223.679 62.844 220.588 59.7824 217.48C57.9904 215.668 54.1989 212.403 54.1989 212.403C54.1989 212.403 52.6098 210.174 52.5207 208.527C52.3775 205.88 53.7881 204.16 55.9997 202.698C57.6746 201.591 58.9808 201.258 60.9812 201.429Z" fill="#FEFEFE"/>
<path d="M104.37 244.609C104.37 244.609 103.901 242.559 102.644 241.398C100.804 239.697 98.583 239.164 96.2705 238.609C95.0167 238.308 93.7358 238.001 92.474 237.497C90.7779 236.82 89.2501 236.227 87.8052 235.666C85.1062 234.618 82.696 233.682 80.0185 232.524L78.7946 232L77.7247 231.536C76.5658 231.112 75.4351 230.884 74.2193 230.684C74.3105 230.908 73.6242 230.502 73.731 230.713C74.7076 232.178 76.4913 234.108 77.7096 235.357C77.8542 235.505 77.9992 235.654 78.1441 235.804L79.0448 236.744C82.0746 239.883 85.1953 242.93 88.3319 245.962C90.1611 247.736 93.4629 251.496 93.4629 251.496C93.4629 251.496 95.7067 253.064 97.3543 253.137C100.003 253.255 101.709 251.828 103.15 249.602C104.241 247.917 104.561 246.608 104.37 244.609Z" fill="#FEFEFE"/>
<defs>
<linearGradient id="paint0_linear_4391_86" x1="213.893" y1="99.3559" x2="379.532" y2="200.828" gradientUnits="userSpaceOnUse">
<stop stop-color="#00FDF9"/>
<stop offset="1" stop-color="#00F6FF"/>
</linearGradient>
<linearGradient id="paint1_linear_4391_86" x1="134.804" y1="142.134" x2="-17.4046" y2="139.647" gradientUnits="userSpaceOnUse">
<stop offset="0.142986" stop-color="#0088F6"/>
<stop offset="1" stop-color="#0269F6"/>
</linearGradient>
</defs>
</svg>
