<!--?xml version="1.0" standalone="no"?-->
              <svg id="sw-js-blob-svg" viewBox="0 0 100 100" xmlns="http://www.w3.org/2000/svg" version="1.1">
                    <defs> 
                        <linearGradient id="sw-gradient" x1="0" x2="1" y1="1" y2="0">
                            <stop id="stop1" stop-color="rgba(248, 117, 55, 1)" offset="0%"></stop>
                            <stop id="stop2" stop-color="rgba(251, 168, 31, 1)" offset="100%"></stop>
                        </linearGradient>
                    </defs>
                <path fill="url(#sw-gradient)" d="M17.6,-20.8C22.7,-16.8,26.6,-11.1,29.2,-4C31.7,3,33,11.4,30.2,18.6C27.4,25.8,20.6,31.8,13,33.5C5.5,35.2,-2.7,32.7,-12.1,30.4C-21.4,28.2,-31.9,26.4,-36.8,20.1C-41.8,13.9,-41.1,3.4,-37.2,-4.4C-33.2,-12.2,-26,-17.3,-19.3,-21C-12.5,-24.8,-6.3,-27.1,0,-27.1C6.3,-27.1,12.6,-24.8,17.6,-20.8Z" width="100%" height="100%" transform="translate(50 50)" stroke-width="0" style="transition: 0.3s;"></path>
              </svg>