<!--?xml version="1.0" standalone="no"?-->
              <svg id="sw-js-blob-svg" viewBox="0 0 100 100" xmlns="http://www.w3.org/2000/svg" version="1.1">
                    <defs> 
                        <linearGradient id="sw-gradient" x1="0" x2="1" y1="1" y2="0">
                            <stop id="stop1" stop-color="rgba(248, 117, 55, 1)" offset="0%"></stop>
                            <stop id="stop2" stop-color="rgba(251, 168, 31, 1)" offset="100%"></stop>
                        </linearGradient>
                    </defs>
                <path fill="url(#sw-gradient)" d="M20.4,-25.3C25.9,-19.7,29.4,-12.8,31.9,-4.7C34.4,3.3,35.9,12.5,33.1,20.9C30.4,29.3,23.3,37,15.4,38.2C7.4,39.3,-1.5,33.9,-8.5,28.9C-15.4,24,-20.5,19.4,-23.7,13.7C-26.9,8.1,-28.2,1.5,-27.1,-4.8C-25.9,-11,-22.4,-16.7,-17.5,-22.4C-12.6,-28,-6.3,-33.5,0.6,-34.2C7.5,-34.9,14.9,-30.8,20.4,-25.3Z" width="100%" height="100%" transform="translate(50 50)" stroke-width="0" style="transition: 0.3s;"></path>
              </svg>