<svg width="741" height="727" viewBox="0 0 741 727" fill="none" xmlns="http://www.w3.org/2000/svg">
<g filter="url(#filter0_f_412_2)">
<path d="M293.2 160.253C224.957 164.687 210 229.713 210 229.713V411H516V180.943C516 180.943 482.888 206.219 431.785 208.682C380.681 211.145 361.442 155.819 293.2 160.253Z" fill="url(#paint0_linear_412_2)"/>
</g>
<g filter="url(#filter1_f_412_2)">
<path d="M274.286 299.198C180.546 303.919 160 373.159 160 373.159V566.191H580.333V321.229C580.333 321.229 521.264 370.536 451.066 373.159C380.868 375.781 368.026 294.477 274.286 299.198Z" fill="url(#paint1_linear_412_2)"/>
</g>
<defs>
<filter id="filter0_f_412_2" x="50" y="0" width="626" height="571" filterUnits="userSpaceOnUse" color-interpolation-filters="sRGB">
<feFlood flood-opacity="0" result="BackgroundImageFix"/>
<feBlend mode="normal" in="SourceGraphic" in2="BackgroundImageFix" result="shape"/>
<feGaussianBlur stdDeviation="80" result="effect1_foregroundBlur_412_2"/>
</filter>
<filter id="filter1_f_412_2" x="0" y="139" width="740.333" height="587.191" filterUnits="userSpaceOnUse" color-interpolation-filters="sRGB">
<feFlood flood-opacity="0" result="BackgroundImageFix"/>
<feBlend mode="normal" in="SourceGraphic" in2="BackgroundImageFix" result="shape"/>
<feGaussianBlur stdDeviation="80" result="effect1_foregroundBlur_412_2"/>
</filter>
<linearGradient id="paint0_linear_412_2" x1="363.226" y1="149.271" x2="363.226" y2="253.813" gradientUnits="userSpaceOnUse">
<stop stop-color="#FB48FF" stop-opacity="0.73"/>
<stop offset="1" stop-color="#FF3495"/>
</linearGradient>
<linearGradient id="paint1_linear_412_2" x1="370.167" y1="299" x2="370.627" y2="482.784" gradientUnits="userSpaceOnUse">
<stop stop-color="#00D0FF" stop-opacity="0.92"/>
<stop offset="1" stop-color="#00E6FF"/>
</linearGradient>
</defs>
</svg>
