<svg width="1280" height="982" viewBox="0 0 1280 982" fill="none" xmlns="http://www.w3.org/2000/svg">
<g style="mix-blend-mode:overlay">
<path fill-rule="evenodd" clip-rule="evenodd" d="M0.99812 493.834C1.62593 628.963 73.614 751.037 189.63 839.154C305.648 927.273 465.653 981.394 642.149 980.574C818.645 979.754 978.141 924.148 1093.33 834.956C1208.53 745.764 1279.38 623.027 1278.75 487.897C1278.12 352.768 1206.13 230.695 1090.12 142.577C992.941 68.7683 864.903 18.8119 722.162 5.01508C968.968 34.8325 1157.95 198.164 1158.87 396.084C1159.9 616.081 928.169 795.504 641.296 796.837C354.423 798.17 121.039 620.908 120.017 400.911C119.097 202.99 306.56 37.9084 553.08 5.80019C410.472 20.9221 282.902 72.0664 186.414 146.775C71.221 235.967 0.370314 358.704 0.99812 493.834ZM-0.00186899 493.838C1.25724 764.849 288.76 983.215 642.154 981.574C995.548 979.932 1281.01 758.903 1279.75 487.893C1278.49 216.882 990.988 -1.4842 637.594 0.157654C284.201 1.79951 -1.26097 222.828 -0.00186899 493.838ZM121.017 400.906C121.526 510.529 179.925 609.573 274.067 681.076C368.21 752.58 498.056 796.502 641.291 795.837C784.527 795.171 913.959 750.045 1007.43 677.669C1100.91 605.294 1158.38 505.711 1157.87 396.089C1157.36 286.466 1098.97 187.422 1004.82 115.919C919.436 51.0648 804.678 8.90091 677.198 2.11572C745.204 9.21764 805.394 35.1744 848.478 72.9302C881.013 92.4021 908.777 116.348 930.197 143.575C996.917 197.922 1037.93 271.079 1038.3 351.709C1039.09 520.692 861.093 658.51 640.742 659.534C420.39 660.558 241.124 524.4 240.339 355.417C239.955 272.888 282.215 197.792 351.225 142.435C370.637 118.245 395.062 96.6623 423.392 78.5461C466.342 38.4297 527.927 10.4613 598.017 2.48331C470.603 10.4519 356.24 53.6805 271.457 119.326C177.984 191.701 120.507 291.284 121.017 400.906ZM428.143 75.563C432.439 71.731 436.909 68.0164 441.545 64.4267C480.283 34.4326 530.569 13.1731 586.902 4.93599C549.832 11.8767 516.466 26.0624 489.488 45.4138C467.591 53.7848 447.037 63.9156 428.143 75.563ZM834.235 62.6022C795.214 32.9644 744.722 12.1712 688.304 4.46089C724.493 10.8862 757.23 24.2254 784.01 42.5771C805.155 50.1759 825.106 59.4056 843.585 70.0564C840.547 67.5141 837.43 65.0286 834.235 62.6022ZM847.887 73.7423C829.146 62.5324 808.814 52.8093 787.196 44.8037C802.889 55.9923 816.427 68.9386 827.275 83.2387C846.103 90.9284 864.03 99.7447 880.903 109.571C871.514 96.7455 860.432 84.7439 847.887 73.7423ZM791.585 49.2748C804.623 59.1782 816.021 70.3377 825.446 82.4965C810.65 76.5293 795.303 71.2559 779.481 66.7322C770.798 53.5066 759.045 41.6775 744.94 31.7912C758.19 35.0884 771.079 38.9974 783.551 43.4747C786.293 45.356 788.972 47.2901 791.585 49.2748ZM742.199 31.1191C744.507 32.6775 746.754 34.2871 748.938 35.9456C760.594 44.7992 770.432 55.0385 778.002 66.312C734.378 53.9921 687.165 47.3634 637.899 47.5923C588.553 47.8215 541.331 54.9111 497.765 67.6745C505.235 56.3073 514.991 45.9562 526.586 36.9786C528.418 35.5604 530.295 34.1766 532.216 32.8287C565.642 24.1626 601.413 19.3876 638.614 19.2147C674.732 19.0469 709.541 23.2293 742.199 31.1191ZM534.607 31.1852C567.356 22.9253 602.306 18.3834 638.61 18.2147C673.826 18.0511 707.806 22.0143 739.772 29.5133C712.291 11.7034 676.669 1.00905 637.762 1.15934C637.707 1.15956 637.652 1.1598 637.597 1.16006C637.544 1.16031 637.49 1.16057 637.436 1.16085C598.012 1.37442 562.064 12.6914 534.607 31.1852ZM529.495 33.5441C515.929 43.419 504.64 55.1123 496.291 68.1091C480.496 72.7918 465.186 78.2214 450.435 84.3409C459.761 72.0555 471.081 60.7556 484.064 50.7036C485.995 49.2083 487.963 47.7407 489.966 46.3017C502.707 41.4363 515.904 37.1677 529.495 33.5441ZM496.932 68.9622C540.713 56.0194 588.226 48.8231 637.903 48.5923C687.501 48.3618 735.007 55.0945 778.848 67.5916C789.27 83.5836 795.155 101.602 795.243 120.664C795.397 153.766 778.043 183.884 749.727 205.809C721.409 227.735 682.169 241.426 638.715 241.628C595.261 241.829 555.895 228.504 527.375 206.842C498.856 185.181 481.223 155.226 481.069 122.124C480.981 103.086 486.683 85.0351 496.932 68.9622ZM780.307 68.01C790.436 83.9044 796.156 101.764 796.243 120.659C796.555 187.615 726.029 242.222 638.72 242.628C551.411 243.033 480.38 189.084 480.069 122.128C479.982 103.257 485.521 85.367 495.477 69.3948C479.546 74.1599 464.112 79.6871 449.253 85.9173C431.17 110.346 420.92 138.576 421.06 168.588C421.273 214.443 445.7 255.913 485.157 285.881C524.614 315.85 579.06 334.275 639.144 333.996C699.228 333.717 753.5 314.787 792.677 284.453C831.853 254.119 855.894 212.424 855.681 166.568C855.542 136.515 845 108.344 826.644 84.0614C811.739 77.9846 796.268 72.6148 780.307 68.01ZM531.79 31.9062C550.703 18.6711 573.81 8.89615 599.406 3.90146C559.004 9.58142 522.516 23.8044 493.227 44.0066C505.677 39.393 518.55 35.345 531.79 31.9062ZM675.816 3.5469C715.297 8.72419 751.125 22.0731 780.225 41.2386C768.054 37.0053 755.499 33.3092 742.609 30.1895C723.78 17.5058 700.975 8.21432 675.816 3.5469ZM882.357 111.582C865.417 101.59 847.394 92.6219 828.445 84.8001C846.296 108.928 856.543 136.816 856.681 166.564C857.111 259.026 759.718 334.436 639.148 334.996C518.579 335.556 420.49 261.055 420.06 168.592C419.922 138.887 429.88 110.942 447.46 86.6735C428.569 94.6912 410.617 103.848 393.761 114.023C372.727 144.152 360.884 178.567 361.054 215.05C361.326 273.659 392.548 326.644 442.941 364.919C493.336 403.195 562.862 426.719 639.576 426.363C716.29 426.006 785.595 401.837 835.631 363.094C885.667 324.353 916.395 271.08 916.123 212.471C915.953 175.92 903.745 141.555 882.357 111.582ZM395.193 111.997C411.984 101.99 429.842 92.9853 448.614 85.101C458.871 71.2932 471.611 58.7051 486.368 47.6966C464.024 56.4866 443.123 67.1231 424.007 79.3399C413.146 89.4919 403.487 100.42 395.193 111.997ZM348.404 146.015C318.128 185.135 300.832 230.828 301.059 279.575C301.725 423.051 453.933 538.657 641.024 537.788C828.114 536.919 979.241 419.904 978.574 276.427C978.355 229.276 961.769 185.134 932.957 147.147C997.488 201.043 1036.94 272.815 1037.3 351.714C1037.69 435.83 993.59 512.257 921.836 567.816C850.08 623.375 750.712 658.023 640.737 658.534C530.762 659.045 431.076 625.322 358.808 570.432C286.54 515.542 241.73 439.528 241.339 355.412C240.964 274.631 281.624 200.94 348.404 146.015ZM877.896 93.9879C869.84 87.8687 861.382 82.0594 852.555 76.5852C864.099 87.1733 874.328 98.6366 883.047 110.828C898.504 119.957 913.061 129.939 926.599 140.682C912.745 123.692 896.379 108.026 877.896 93.9879ZM929.481 144.281C959.829 182.89 977.35 228.086 977.574 276.432C977.906 347.794 940.491 412.645 879.596 459.795C818.7 506.945 734.364 536.354 641.019 536.788C547.674 537.222 463.068 508.598 401.737 462.015C340.406 415.432 302.39 350.933 302.059 279.571C301.827 229.628 320.082 182.876 351.935 143.147C353.544 141.858 355.167 140.579 356.805 139.31C367.799 130.798 379.441 122.777 391.67 115.294C371.326 145.13 359.887 179.081 360.054 215.055C360.602 333.024 485.75 428.078 639.581 427.363C793.411 426.648 917.671 330.436 917.123 212.466C916.955 176.424 905.157 142.52 884.462 112.833C896.864 120.25 908.675 128.22 919.833 136.695C923.106 139.181 926.322 141.71 929.481 144.281ZM354.879 139.542C367.9 123.882 383.055 109.357 400.037 96.208C406.277 91.3771 412.762 86.7323 419.478 82.2859C409.561 91.9804 400.711 102.345 393.064 113.276C379.612 121.404 366.857 130.18 354.879 139.542Z" fill="white"/>
</g>
</svg>
